<?xml version="1.0" encoding="UTF-8" standalone="no"?>
<!-- Created with Inkscape (http://www.inkscape.org/) -->

<svg
   width="175.18074mm"
   height="385.13528mm"
   viewBox="0 0 175.18074 385.13528"
   version="1.1"
   id="svg908"
   xmlns:inkscape="http://www.inkscape.org/namespaces/inkscape"
   xmlns:sodipodi="http://sodipodi.sourceforge.net/DTD/sodipodi-0.dtd"
   xmlns="http://www.w3.org/2000/svg"
   xmlns:svg="http://www.w3.org/2000/svg">
  <sodipodi:namedview
     id="namedview910"
     pagecolor="#ffffff"
     bordercolor="#000000"
     borderopacity="0.25"
     inkscape:showpageshadow="2"
     inkscape:pageopacity="0.0"
     inkscape:pagecheckerboard="0"
     inkscape:deskcolor="#d1d1d1"
     inkscape:document-units="mm"
     showgrid="false" />
  <defs
     id="defs905" />
  <g
     inkscape:label="Ebene 1"
     inkscape:groupmode="layer"
     id="layer1"
     transform="translate(-247.69677,33.292335)">
    <path
       d="m 248.96423,15.706756 c 0,-42.197073 33.94075,-48.520085 76.18412,-48.520085 v 0 c 42.24073,0 76.48575,6.0198 76.48575,48.216872 -0.1614,93.059517 -0.32279,186.119307 -0.48419,279.178547 0,42.1984 -33.76083,39.54992 -76.00156,39.54992 v 0 c -42.24337,0 -76.97258,2.64848 -76.97258,-39.54992 0,-71.37929 0.78846,-207.497102 0.78846,-278.875334 z"
       stroke="#000000"
       stroke-width="0.958011"
       stroke-miterlimit="8"
       fill="#ffffff"
       fill-rule="evenodd"
       id="path7" />
    <path
       d="m 319.34868,351.09709 h 11.21834"
       stroke="#000000"
       stroke-width="0.962501"
       stroke-linejoin="round"
       stroke-miterlimit="10"
       fill="none"
       fill-rule="evenodd"
       id="path9" />
    <path
       d="m 394.75493,1.5825035 c 0,-2.30901896 -1.74889,-4.233333 -3.84704,-4.233333 h -14.00175 c -2.09814,0 -3.84704,1.92431404 -3.84704,4.233333 0,2.309019 1.7489,4.233333 3.84704,4.233333 h 14.00175 c 2.09815,0 3.84704,-1.924314 3.84704,-4.233333 z"
       fill="#ffffff"
       fill-rule="evenodd"
       id="path11"
       style="stroke-width:0.264583" />
    <path
       d="m 394.75493,1.5825035 c 0,-2.30901896 -1.74889,-4.233333 -3.84704,-4.233333 -2.09814,0 -3.84439,1.92431404 -3.84439,4.233333 0,2.309019 1.74625,4.233333 3.84439,4.233333 2.09815,0 3.84704,-1.924314 3.84704,-4.233333 z"
       fill="#ffffff"
       fill-rule="evenodd"
       id="path13"
       style="stroke-width:0.264583" />
    <path
       d="m 394.75493,1.5825035 c 0,-2.30901896 -1.74889,-4.233333 -3.84704,-4.233333 h -14.00175 c -2.09814,0 -3.84704,1.92431404 -3.84704,4.233333 0,2.309019 1.7489,4.233333 3.84704,4.233333 h 14.00175 c 2.09815,0 3.84704,-1.924314 3.84704,-4.233333 z"
       stroke="#000000"
       stroke-width="0.962501"
       stroke-linejoin="round"
       stroke-miterlimit="10"
       fill="none"
       fill-rule="evenodd"
       id="path15" />
    <path
       d="m 394.75493,1.5825035 c 0,-2.30901896 -1.74889,-4.233333 -3.84704,-4.233333 -2.09814,0 -3.84439,1.92431404 -3.84439,4.233333 0,2.309019 1.74625,4.233333 3.84439,4.233333 2.09815,0 3.84704,-1.924314 3.84704,-4.233333 z"
       stroke="#000000"
       stroke-width="0.962501"
       stroke-linejoin="round"
       stroke-miterlimit="10"
       fill="none"
       fill-rule="evenodd"
       id="path17" />
    <path
       d="m 394.75493,224.22939 c 0,-2.38125 -1.74889,-4.36563 -3.84704,-4.36563 h -14.00175 c -2.09814,0 -3.84704,1.98438 -3.84704,4.36563 0,2.38125 1.7489,4.36562 3.84704,4.36562 h 14.00175 c 2.09815,0 3.84704,-1.98437 3.84704,-4.36562 z"
       fill="#ffffff"
       fill-rule="evenodd"
       id="path19"
       style="stroke-width:0.264583" />
    <path
       d="m 394.75493,224.22939 c 0,-2.38125 -1.74889,-4.36563 -3.84704,-4.36563 -2.09814,0 -3.84439,1.98438 -3.84439,4.36563 0,2.38125 1.74625,4.36562 3.84439,4.36562 2.09815,0 3.84704,-1.98437 3.84704,-4.36562 z"
       fill="#ffffff"
       fill-rule="evenodd"
       id="path21"
       style="stroke-width:0.264583" />
    <path
       d="m 394.75493,224.22939 c 0,-2.38125 -1.74889,-4.36563 -3.84704,-4.36563 h -14.00175 c -2.09814,0 -3.84704,1.98438 -3.84704,4.36563 0,2.38125 1.7489,4.36562 3.84704,4.36562 h 14.00175 c 2.09815,0 3.84704,-1.98437 3.84704,-4.36562 z"
       stroke="#000000"
       stroke-width="0.962501"
       stroke-linejoin="round"
       stroke-miterlimit="10"
       fill="none"
       fill-rule="evenodd"
       id="path23" />
    <path
       d="m 394.75493,224.22939 c 0,-2.38125 -1.74889,-4.36563 -3.84704,-4.36563 -2.09814,0 -3.84439,1.98438 -3.84439,4.36563 0,2.38125 1.74625,4.36562 3.84439,4.36562 2.09815,0 3.84704,-1.98437 3.84704,-4.36562 z"
       stroke="#000000"
       stroke-width="0.962501"
       stroke-linejoin="round"
       stroke-miterlimit="10"
       fill="none"
       fill-rule="evenodd"
       id="path25" />
    <path
       d="m 394.75493,150.54292 c 0,-2.30902 -1.74889,-4.23334 -3.84704,-4.23334 h -14.00175 c -2.09814,0 -3.84704,1.92432 -3.84704,4.23334 0,2.30928 1.7489,4.23333 3.84704,4.23333 h 14.00175 c 2.09815,0 3.84704,-1.92405 3.84704,-4.23333 z"
       fill="#ffffff"
       fill-rule="evenodd"
       id="path27"
       style="stroke-width:0.264583" />
    <path
       d="m 394.75493,150.54292 c 0,-2.30902 -1.74889,-4.23334 -3.84704,-4.23334 -2.09814,0 -3.84439,1.92432 -3.84439,4.23334 0,2.30928 1.74625,4.23333 3.84439,4.23333 2.09815,0 3.84704,-1.92405 3.84704,-4.23333 z"
       fill="#ffffff"
       fill-rule="evenodd"
       id="path29"
       style="stroke-width:0.264583" />
    <path
       d="m 394.75493,150.54292 c 0,-2.30902 -1.74889,-4.23334 -3.84704,-4.23334 h -14.00175 c -2.09814,0 -3.84704,1.92432 -3.84704,4.23334 0,2.30928 1.7489,4.23333 3.84704,4.23333 h 14.00175 c 2.09815,0 3.84704,-1.92405 3.84704,-4.23333 z"
       stroke="#000000"
       stroke-width="0.962501"
       stroke-linejoin="round"
       stroke-miterlimit="10"
       fill="none"
       fill-rule="evenodd"
       id="path31" />
    <path
       d="m 394.75493,150.54292 c 0,-2.30902 -1.74889,-4.23334 -3.84704,-4.23334 -2.09814,0 -3.84439,1.92432 -3.84439,4.23334 0,2.30928 1.74625,4.23333 3.84439,4.23333 2.09815,0 3.84704,-1.92405 3.84704,-4.23333 z"
       stroke="#000000"
       stroke-width="0.962501"
       stroke-linejoin="round"
       stroke-miterlimit="10"
       fill="none"
       fill-rule="evenodd"
       id="path33" />
    <path
       d="m 395.2841,300.82626 c 0,-2.30981 -1.77006,-4.23333 -3.89202,-4.23333 H 377.2157 c -2.12195,0 -3.89202,1.92352 -3.89202,4.23333 0,2.30981 1.77007,4.23333 3.89202,4.23333 h 14.17638 c 2.12196,0 3.89202,-1.92352 3.89202,-4.23333 z"
       fill="#ffffff"
       fill-rule="evenodd"
       id="path35"
       style="stroke-width:0.264583" />
    <path
       d="m 395.2841,300.82626 c 0,-2.30981 -1.77006,-4.23333 -3.89202,-4.23333 -2.1246,0 -3.89467,1.92352 -3.89467,4.23333 0,2.30981 1.77007,4.23333 3.89467,4.23333 2.12196,0 3.89202,-1.92352 3.89202,-4.23333 z"
       fill="#ffffff"
       fill-rule="evenodd"
       id="path37"
       style="stroke-width:0.264583" />
    <path
       d="m 395.2841,300.82626 c 0,-2.30981 -1.77006,-4.23333 -3.89202,-4.23333 H 377.2157 c -2.12195,0 -3.89202,1.92352 -3.89202,4.23333 0,2.30981 1.77007,4.23333 3.89202,4.23333 h 14.17638 c 2.12196,0 3.89202,-1.92352 3.89202,-4.23333 z"
       stroke="#000000"
       stroke-width="0.962501"
       stroke-linejoin="round"
       stroke-miterlimit="10"
       fill="none"
       fill-rule="evenodd"
       id="path39" />
    <path
       d="m 395.2841,300.82626 c 0,-2.30981 -1.77006,-4.23333 -3.89202,-4.23333 -2.1246,0 -3.89467,1.92352 -3.89467,4.23333 0,2.30981 1.77007,4.23333 3.89467,4.23333 2.12196,0 3.89202,-1.92352 3.89202,-4.23333 z"
       stroke="#000000"
       stroke-width="0.962501"
       stroke-linejoin="round"
       stroke-miterlimit="10"
       fill="none"
       fill-rule="evenodd"
       id="path41" />
    <path
       d="m 257.43618,1.3179205 c 0,-2.30909296 1.74774,-4.233334 3.84599,-4.233334 h 14.00389 c 2.09828,0 3.84601,1.92424104 3.84601,4.233334 0,2.309071 -1.74773,4.233333 -3.84601,4.233333 h -14.00389 c -2.09825,0 -3.84599,-1.924262 -3.84599,-4.233333 z"
       fill="#ffffff"
       fill-rule="evenodd"
       id="path43"
       style="stroke-width:0.264583" />
    <path
       d="m 257.43618,1.3179205 c 0,-2.30909296 1.74774,-4.233334 3.84599,-4.233334 2.09828,0 3.84601,1.92424104 3.84601,4.233334 0,2.309071 -1.74773,4.233333 -3.84601,4.233333 -2.09825,0 -3.84599,-1.924262 -3.84599,-4.233333 z"
       fill="#ffffff"
       fill-rule="evenodd"
       id="path45"
       style="stroke-width:0.264583" />
    <path
       d="m 257.43618,1.3179205 c 0,-2.30909296 1.74774,-4.233334 3.84599,-4.233334 h 14.00389 c 2.09828,0 3.84601,1.92424104 3.84601,4.233334 0,2.309071 -1.74773,4.233333 -3.84601,4.233333 h -14.00389 c -2.09825,0 -3.84599,-1.924262 -3.84599,-4.233333 z"
       stroke="#000000"
       stroke-width="0.962501"
       stroke-linejoin="round"
       stroke-miterlimit="10"
       fill="none"
       fill-rule="evenodd"
       id="path47" />
    <path
       d="m 257.43618,1.3179205 c 0,-2.30909296 1.74774,-4.233334 3.84599,-4.233334 2.09828,0 3.84601,1.92424104 3.84601,4.233334 0,2.309071 -1.74773,4.233333 -3.84601,4.233333 -2.09825,0 -3.84599,-1.924262 -3.84599,-4.233333 z"
       stroke="#000000"
       stroke-width="0.962501"
       stroke-linejoin="round"
       stroke-miterlimit="10"
       fill="none"
       fill-rule="evenodd"
       id="path49" />
    <path
       d="m 395.2841,75.401252 c 0,-2.309018 -1.77006,-4.233333 -3.89202,-4.233333 H 377.2157 c -2.12195,0 -3.89202,1.924315 -3.89202,4.233333 0,2.30902 1.77007,4.233334 3.89202,4.233334 h 14.17638 c 2.12196,0 3.89202,-1.924314 3.89202,-4.233334 z"
       fill="#ffffff"
       fill-rule="evenodd"
       id="path51"
       style="stroke-width:0.264583" />
    <path
       d="m 395.2841,75.401252 c 0,-2.309018 -1.77006,-4.233333 -3.89202,-4.233333 -2.1246,0 -3.89467,1.924315 -3.89467,4.233333 0,2.30902 1.77007,4.233334 3.89467,4.233334 2.12196,0 3.89202,-1.924314 3.89202,-4.233334 z"
       fill="#ffffff"
       fill-rule="evenodd"
       id="path53"
       style="stroke-width:0.264583" />
    <path
       d="m 395.2841,75.401252 c 0,-2.309018 -1.77006,-4.233333 -3.89202,-4.233333 H 377.2157 c -2.12195,0 -3.89202,1.924315 -3.89202,4.233333 0,2.30902 1.77007,4.233334 3.89202,4.233334 h 14.17638 c 2.12196,0 3.89202,-1.924314 3.89202,-4.233334 z"
       stroke="#000000"
       stroke-width="0.962501"
       stroke-linejoin="round"
       stroke-miterlimit="10"
       fill="none"
       fill-rule="evenodd"
       id="path55" />
    <path
       d="m 395.2841,75.401252 c 0,-2.309018 -1.77006,-4.233333 -3.89202,-4.233333 -2.1246,0 -3.89467,1.924315 -3.89467,4.233333 0,2.30902 1.77007,4.233334 3.89467,4.233334 2.12196,0 3.89202,-1.924314 3.89202,-4.233334 z"
       stroke="#000000"
       stroke-width="0.962501"
       stroke-linejoin="round"
       stroke-miterlimit="10"
       fill="none"
       fill-rule="evenodd"
       id="path57" />
    <path
       d="m 257.43618,300.56168 c 0,-2.3091 1.74774,-4.23334 3.84599,-4.23334 h 14.00389 c 2.09828,0 3.84601,1.92424 3.84601,4.23334 0,2.30907 -1.74773,4.23333 -3.84601,4.23333 h -14.00389 c -2.09825,0 -3.84599,-1.92426 -3.84599,-4.23333 z"
       fill="#ffffff"
       fill-rule="evenodd"
       id="path59"
       style="stroke-width:0.264583" />
    <path
       d="m 257.43618,300.56168 c 0,-2.3091 1.74774,-4.23334 3.84599,-4.23334 2.09828,0 3.84601,1.92424 3.84601,4.23334 0,2.30907 -1.74773,4.23333 -3.84601,4.23333 -2.09825,0 -3.84599,-1.92426 -3.84599,-4.23333 z"
       fill="#ffffff"
       fill-rule="evenodd"
       id="path61"
       style="stroke-width:0.264583" />
    <path
       d="m 257.43618,300.56168 c 0,-2.3091 1.74774,-4.23334 3.84599,-4.23334 h 14.00389 c 2.09828,0 3.84601,1.92424 3.84601,4.23334 0,2.30907 -1.74773,4.23333 -3.84601,4.23333 h -14.00389 c -2.09825,0 -3.84599,-1.92426 -3.84599,-4.23333 z"
       stroke="#000000"
       stroke-width="0.962501"
       stroke-linejoin="round"
       stroke-miterlimit="10"
       fill="none"
       fill-rule="evenodd"
       id="path63" />
    <path
       d="m 257.43618,300.56168 c 0,-2.3091 1.74774,-4.23334 3.84599,-4.23334 2.09828,0 3.84601,1.92424 3.84601,4.23334 0,2.30907 -1.74773,4.23333 -3.84601,4.23333 -2.09825,0 -3.84599,-1.92426 -3.84599,-4.23333 z"
       stroke="#000000"
       stroke-width="0.962501"
       stroke-linejoin="round"
       stroke-miterlimit="10"
       fill="none"
       fill-rule="evenodd"
       id="path65" />
    <path
       d="m 257.43618,223.03876 c 0,-2.3091 1.74774,-4.23333 3.84599,-4.23333 h 14.00389 c 2.09828,0 3.84601,1.92423 3.84601,4.23333 0,2.30907 -1.74773,4.23333 -3.84601,4.23333 h -14.00389 c -2.09825,0 -3.84599,-1.92426 -3.84599,-4.23333 z"
       fill="#ffffff"
       fill-rule="evenodd"
       id="path67"
       style="stroke-width:0.264583" />
    <path
       d="m 257.43618,223.03876 c 0,-2.3091 1.74774,-4.23333 3.84599,-4.23333 2.09828,0 3.84601,1.92423 3.84601,4.23333 0,2.30907 -1.74773,4.23333 -3.84601,4.23333 -2.09825,0 -3.84599,-1.92426 -3.84599,-4.23333 z"
       fill="#ffffff"
       fill-rule="evenodd"
       id="path69"
       style="stroke-width:0.264583" />
    <path
       d="m 257.43618,223.03876 c 0,-2.3091 1.74774,-4.23333 3.84599,-4.23333 h 14.00389 c 2.09828,0 3.84601,1.92423 3.84601,4.23333 0,2.30907 -1.74773,4.23333 -3.84601,4.23333 h -14.00389 c -2.09825,0 -3.84599,-1.92426 -3.84599,-4.23333 z"
       stroke="#000000"
       stroke-width="0.962501"
       stroke-linejoin="round"
       stroke-miterlimit="10"
       fill="none"
       fill-rule="evenodd"
       id="path71" />
    <path
       d="m 257.43618,223.03876 c 0,-2.3091 1.74774,-4.23333 3.84599,-4.23333 2.09828,0 3.84601,1.92423 3.84601,4.23333 0,2.30907 -1.74773,4.23333 -3.84601,4.23333 -2.09825,0 -3.84599,-1.92426 -3.84599,-4.23333 z"
       stroke="#000000"
       stroke-width="0.962501"
       stroke-linejoin="round"
       stroke-miterlimit="10"
       fill="none"
       fill-rule="evenodd"
       id="path73" />
    <path
       d="m 256.90702,149.74917 c 0,-2.30909 1.74773,-4.23334 3.84598,-4.23334 h 14.00389 c 2.09828,0 3.84601,1.92425 3.84601,4.23334 0,2.30907 -1.74773,4.23333 -3.84601,4.23333 H 260.753 c -2.09825,0 -3.84598,-1.92426 -3.84598,-4.23333 z"
       fill="#ffffff"
       fill-rule="evenodd"
       id="path75"
       style="stroke-width:0.264583" />
    <path
       d="m 256.90702,149.74917 c 0,-2.30909 1.74773,-4.23334 3.84598,-4.23334 2.09828,0 3.84601,1.92425 3.84601,4.23334 0,2.30907 -1.74773,4.23333 -3.84601,4.23333 -2.09825,0 -3.84598,-1.92426 -3.84598,-4.23333 z"
       fill="#ffffff"
       fill-rule="evenodd"
       id="path77"
       style="stroke-width:0.264583" />
    <path
       d="m 256.90702,149.74917 c 0,-2.30909 1.74773,-4.23334 3.84598,-4.23334 h 14.00389 c 2.09828,0 3.84601,1.92425 3.84601,4.23334 0,2.30907 -1.74773,4.23333 -3.84601,4.23333 H 260.753 c -2.09825,0 -3.84598,-1.92426 -3.84598,-4.23333 z"
       stroke="#000000"
       stroke-width="0.962501"
       stroke-linejoin="round"
       stroke-miterlimit="10"
       fill="none"
       fill-rule="evenodd"
       id="path79" />
    <path
       d="m 256.90702,149.74917 c 0,-2.30909 1.74773,-4.23334 3.84598,-4.23334 2.09828,0 3.84601,1.92425 3.84601,4.23334 0,2.30907 -1.74773,4.23333 -3.84601,4.23333 -2.09825,0 -3.84598,-1.92426 -3.84598,-4.23333 z"
       stroke="#000000"
       stroke-width="0.962501"
       stroke-linejoin="round"
       stroke-miterlimit="10"
       fill="none"
       fill-rule="evenodd"
       id="path81" />
    <path
       d="m 257.43618,75.533544 c 0,-2.38125 1.74774,-4.365625 3.84599,-4.365625 h 14.00389 c 2.09828,0 3.84601,1.984375 3.84601,4.365625 0,2.381251 -1.74773,4.365626 -3.84601,4.365626 h -14.00389 c -2.09825,0 -3.84599,-1.984375 -3.84599,-4.365626 z"
       fill="#ffffff"
       fill-rule="evenodd"
       id="path83"
       style="stroke-width:0.264583" />
    <path
       d="m 257.43618,75.533544 c 0,-2.38125 1.74774,-4.365625 3.84599,-4.365625 2.09828,0 3.84601,1.984375 3.84601,4.365625 0,2.381251 -1.74773,4.365626 -3.84601,4.365626 -2.09825,0 -3.84599,-1.984375 -3.84599,-4.365626 z"
       fill="#ffffff"
       fill-rule="evenodd"
       id="path85"
       style="stroke-width:0.264583" />
    <path
       d="m 257.43618,75.533544 c 0,-2.38125 1.74774,-4.365625 3.84599,-4.365625 h 14.00389 c 2.09828,0 3.84601,1.984375 3.84601,4.365625 0,2.381251 -1.74773,4.365626 -3.84601,4.365626 h -14.00389 c -2.09825,0 -3.84599,-1.984375 -3.84599,-4.365626 z"
       stroke="#000000"
       stroke-width="0.962501"
       stroke-linejoin="round"
       stroke-miterlimit="10"
       fill="none"
       fill-rule="evenodd"
       id="path87" />
    <path
       d="m 257.43618,75.533544 c 0,-2.38125 1.74774,-4.365625 3.84599,-4.365625 2.09828,0 3.84601,1.984375 3.84601,4.365625 0,2.381251 -1.74773,4.365626 -3.84601,4.365626 -2.09825,0 -3.84599,-1.984375 -3.84599,-4.365626 z"
       stroke="#000000"
       stroke-width="0.962501"
       stroke-linejoin="round"
       stroke-miterlimit="10"
       fill="none"
       fill-rule="evenodd"
       id="path89" />
    <path
       d="M 401.9225,133.90063 248.17577,133.345"
       stroke="#000000"
       stroke-width="0.962501"
       stroke-linejoin="round"
       stroke-miterlimit="10"
       stroke-dasharray="7.16646, 7.16646"
       fill="none"
       fill-rule="evenodd"
       id="path91" />
    <path
       d="m 282.04243,28.966879 c 0,-2.38125 1.32144,-4.365625 2.90793,-4.365625 h 10.58826 c 1.58649,0 2.90795,1.984375 2.90795,4.365625 0,2.381249 -1.32146,4.365624 -2.90795,4.365624 h -10.58826 c -1.58649,0 -2.90793,-1.984375 -2.90793,-4.365624 z"
       fill="#ffffff"
       fill-rule="evenodd"
       id="path93"
       style="stroke-width:0.264583" />
    <path
       d="m 282.04243,28.966879 c 0,-2.38125 1.32144,-4.365625 2.90793,-4.365625 1.5865,0 2.90793,1.984375 2.90793,4.365625 0,2.381249 -1.32143,4.365624 -2.90793,4.365624 -1.58649,0 -2.90793,-1.984375 -2.90793,-4.365624 z"
       fill="#ffffff"
       fill-rule="evenodd"
       id="path95"
       style="stroke-width:0.264583" />
    <path
       d="m 282.04243,28.966879 c 0,-2.38125 1.32144,-4.365625 2.90793,-4.365625 h 10.58826 c 1.58649,0 2.90795,1.984375 2.90795,4.365625 0,2.381249 -1.32146,4.365624 -2.90795,4.365624 h -10.58826 c -1.58649,0 -2.90793,-1.984375 -2.90793,-4.365624 z"
       stroke="#000000"
       stroke-width="0.962501"
       stroke-linejoin="round"
       stroke-miterlimit="10"
       fill="none"
       fill-rule="evenodd"
       id="path97" />
    <path
       d="m 282.04243,28.966879 c 0,-2.38125 1.32144,-4.365625 2.90793,-4.365625 1.5865,0 2.90793,1.984375 2.90793,4.365625 0,2.381249 -1.32143,4.365624 -2.90793,4.365624 -1.58649,0 -2.90793,-1.984375 -2.90793,-4.365624 z"
       stroke="#000000"
       stroke-width="0.962501"
       stroke-linejoin="round"
       stroke-miterlimit="10"
       fill="none"
       fill-rule="evenodd"
       id="path99" />
    <path
       d="m 282.5716,116.67625 c 0,-2.30909 1.32144,-4.23333 2.90793,-4.23333 h 10.58826 c 1.58649,0 2.90795,1.92424 2.90795,4.23333 0,2.30907 -1.32146,4.23334 -2.90795,4.23334 h -10.58826 c -1.58649,0 -2.90793,-1.92427 -2.90793,-4.23334 z"
       fill="#ffffff"
       fill-rule="evenodd"
       id="path101"
       style="stroke-width:0.264583" />
    <path
       d="m 282.5716,116.67625 c 0,-2.30909 1.32144,-4.23333 2.90793,-4.23333 1.5865,0 2.90793,1.92424 2.90793,4.23333 0,2.30907 -1.32143,4.23334 -2.90793,4.23334 -1.58649,0 -2.90793,-1.92427 -2.90793,-4.23334 z"
       fill="#ffffff"
       fill-rule="evenodd"
       id="path103"
       style="stroke-width:0.264583" />
    <path
       d="m 282.5716,116.67625 c 0,-2.30909 1.32144,-4.23333 2.90793,-4.23333 h 10.58826 c 1.58649,0 2.90795,1.92424 2.90795,4.23333 0,2.30907 -1.32146,4.23334 -2.90795,4.23334 h -10.58826 c -1.58649,0 -2.90793,-1.92427 -2.90793,-4.23334 z"
       stroke="#000000"
       stroke-width="0.962501"
       stroke-linejoin="round"
       stroke-miterlimit="10"
       fill="none"
       fill-rule="evenodd"
       id="path105" />
    <path
       d="m 282.5716,116.67625 c 0,-2.30909 1.32144,-4.23333 2.90793,-4.23333 1.5865,0 2.90793,1.92424 2.90793,4.23333 0,2.30907 -1.32143,4.23334 -2.90793,4.23334 -1.58649,0 -2.90793,-1.92427 -2.90793,-4.23334 z"
       stroke="#000000"
       stroke-width="0.962501"
       stroke-linejoin="round"
       stroke-miterlimit="10"
       fill="none"
       fill-rule="evenodd"
       id="path107" />
    <path
       d="m 282.04243,295.27001 c 0,-2.3091 1.32144,-4.23333 2.90793,-4.23333 h 10.58826 c 1.58649,0 2.90795,1.92423 2.90795,4.23333 0,2.30907 -1.32146,4.23333 -2.90795,4.23333 h -10.58826 c -1.58649,0 -2.90793,-1.92426 -2.90793,-4.23333 z"
       fill="#ffffff"
       fill-rule="evenodd"
       id="path109"
       style="stroke-width:0.264583" />
    <path
       d="m 282.04243,295.27001 c 0,-2.3091 1.32144,-4.23333 2.90793,-4.23333 1.5865,0 2.90793,1.92423 2.90793,4.23333 0,2.30907 -1.32143,4.23333 -2.90793,4.23333 -1.58649,0 -2.90793,-1.92426 -2.90793,-4.23333 z"
       fill="#ffffff"
       fill-rule="evenodd"
       id="path111"
       style="stroke-width:0.264583" />
    <path
       d="m 282.04243,295.27001 c 0,-2.3091 1.32144,-4.23333 2.90793,-4.23333 h 10.58826 c 1.58649,0 2.90795,1.92423 2.90795,4.23333 0,2.30907 -1.32146,4.23333 -2.90795,4.23333 h -10.58826 c -1.58649,0 -2.90793,-1.92426 -2.90793,-4.23333 z"
       stroke="#000000"
       stroke-width="0.962501"
       stroke-linejoin="round"
       stroke-miterlimit="10"
       fill="none"
       fill-rule="evenodd"
       id="path113" />
    <path
       d="m 282.04243,295.27001 c 0,-2.3091 1.32144,-4.23333 2.90793,-4.23333 1.5865,0 2.90793,1.92423 2.90793,4.23333 0,2.30907 -1.32143,4.23333 -2.90793,4.23333 -1.58649,0 -2.90793,-1.92426 -2.90793,-4.23333 z"
       stroke="#000000"
       stroke-width="0.962501"
       stroke-linejoin="round"
       stroke-miterlimit="10"
       fill="none"
       fill-rule="evenodd"
       id="path115" />
    <path
       d="m 282.04243,295.27001 c 0,-2.3091 1.32144,-4.23333 2.90793,-4.23333 h 10.58826 c 1.58649,0 2.90795,1.92423 2.90795,4.23333 0,2.30907 -1.32146,4.23333 -2.90795,4.23333 h -10.58826 c -1.58649,0 -2.90793,-1.92426 -2.90793,-4.23333 z"
       fill="#ffffff"
       fill-rule="evenodd"
       id="path117"
       style="stroke-width:0.264583" />
    <path
       d="m 282.04243,295.27001 c 0,-2.3091 1.32144,-4.23333 2.90793,-4.23333 1.5865,0 2.90793,1.92423 2.90793,4.23333 0,2.30907 -1.32143,4.23333 -2.90793,4.23333 -1.58649,0 -2.90793,-1.92426 -2.90793,-4.23333 z"
       fill="#ffffff"
       fill-rule="evenodd"
       id="path119"
       style="stroke-width:0.264583" />
    <path
       d="m 282.04243,295.27001 c 0,-2.3091 1.32144,-4.23333 2.90793,-4.23333 h 10.58826 c 1.58649,0 2.90795,1.92423 2.90795,4.23333 0,2.30907 -1.32146,4.23333 -2.90795,4.23333 h -10.58826 c -1.58649,0 -2.90793,-1.92426 -2.90793,-4.23333 z"
       stroke="#000000"
       stroke-width="0.962501"
       stroke-linejoin="round"
       stroke-miterlimit="10"
       fill="none"
       fill-rule="evenodd"
       id="path121" />
    <path
       d="m 282.04243,295.27001 c 0,-2.3091 1.32144,-4.23333 2.90793,-4.23333 1.5865,0 2.90793,1.92423 2.90793,4.23333 0,2.30907 -1.32143,4.23333 -2.90793,4.23333 -1.58649,0 -2.90793,-1.92426 -2.90793,-4.23333 z"
       stroke="#000000"
       stroke-width="0.962501"
       stroke-linejoin="round"
       stroke-miterlimit="10"
       fill="none"
       fill-rule="evenodd"
       id="path123" />
    <path
       d="m 283.10077,172.50334 c 0,-2.3091 1.32146,-4.23334 2.90795,-4.23334 h 10.58831 c 1.58652,0 2.90796,1.92424 2.90796,4.23334 0,2.30907 -1.32144,4.23333 -2.90796,4.23333 h -10.58831 c -1.58649,0 -2.90795,-1.92426 -2.90795,-4.23333 z"
       fill="#ffffff"
       fill-rule="evenodd"
       id="path125"
       style="stroke-width:0.264583" />
    <path
       d="m 283.10077,172.50334 c 0,-2.3091 1.32146,-4.23334 2.90795,-4.23334 1.5865,0 2.90796,1.92424 2.90796,4.23334 0,2.30907 -1.32146,4.23333 -2.90796,4.23333 -1.58649,0 -2.90795,-1.92426 -2.90795,-4.23333 z"
       fill="#ffffff"
       fill-rule="evenodd"
       id="path127"
       style="stroke-width:0.264583" />
    <path
       d="m 283.10077,172.50334 c 0,-2.3091 1.32146,-4.23334 2.90795,-4.23334 h 10.58831 c 1.58652,0 2.90796,1.92424 2.90796,4.23334 0,2.30907 -1.32144,4.23333 -2.90796,4.23333 h -10.58831 c -1.58649,0 -2.90795,-1.92426 -2.90795,-4.23333 z"
       stroke="#000000"
       stroke-width="0.962501"
       stroke-linejoin="round"
       stroke-miterlimit="10"
       fill="none"
       fill-rule="evenodd"
       id="path129" />
    <path
       d="m 283.10077,172.50334 c 0,-2.3091 1.32146,-4.23334 2.90795,-4.23334 1.5865,0 2.90796,1.92424 2.90796,4.23334 0,2.30907 -1.32146,4.23333 -2.90796,4.23333 -1.58649,0 -2.90795,-1.92426 -2.90795,-4.23333 z"
       stroke="#000000"
       stroke-width="0.962501"
       stroke-linejoin="round"
       stroke-miterlimit="10"
       fill="none"
       fill-rule="evenodd"
       id="path131" />
    <path
       d="m 398.4591,-3.2454495 h 24.32285"
       stroke="#000000"
       stroke-width="1.02997"
       stroke-linejoin="round"
       stroke-miterlimit="10"
       fill="none"
       fill-rule="evenodd"
       id="path133" />
    <path
       d="m 330.72577,350.98597 10e-5,-33.22717"
       stroke="#000000"
       stroke-width="0.962501"
       stroke-linejoin="round"
       stroke-miterlimit="10"
       fill="none"
       fill-rule="evenodd"
       id="path135" />
    <path
       d="m 377.8216,351.36168 h 12.49098"
       stroke="#000000"
       stroke-width="0.962501"
       stroke-linejoin="round"
       stroke-miterlimit="10"
       fill="none"
       fill-rule="evenodd"
       id="path137" />
    <path
       d="m 383.64243,351.06534 1.1e-4,-22.19192"
       stroke="#000000"
       stroke-width="0.962501"
       stroke-linejoin="round"
       stroke-miterlimit="10"
       fill="none"
       fill-rule="evenodd"
       id="path139" />
    <path
       d="m 383.52602,351.3802 -9.40859,-19.33311"
       stroke="#000000"
       stroke-width="0.962501"
       stroke-linejoin="round"
       stroke-miterlimit="10"
       fill="none"
       fill-rule="evenodd"
       id="path141" />
    <path
       d="m 390.25702,351.41195 10e-5,-27.83099"
       stroke="#000000"
       stroke-width="0.962501"
       stroke-linejoin="round"
       stroke-miterlimit="10"
       fill="none"
       fill-rule="evenodd"
       id="path143" />
    <path
       d="m 377.7872,351.12884 -9.22602,-18.288"
       stroke="#000000"
       stroke-width="0.962501"
       stroke-linejoin="round"
       stroke-miterlimit="10"
       fill="none"
       fill-rule="evenodd"
       id="path145" />
    <path
       d="m 261.9341,351.32993 0.0606,-25.10235"
       stroke="#000000"
       stroke-width="0.962501"
       stroke-linejoin="round"
       stroke-miterlimit="10"
       fill="none"
       fill-rule="evenodd"
       id="path147" />
    <path
       d="m 261.9341,351.36168 h 12.49098"
       stroke="#000000"
       stroke-width="0.962501"
       stroke-linejoin="round"
       stroke-miterlimit="10"
       fill="none"
       fill-rule="evenodd"
       id="path149" />
    <path
       d="m 274.6341,351.1897 9.61038,-18.34822"
       stroke="#000000"
       stroke-width="0.962501"
       stroke-linejoin="round"
       stroke-miterlimit="10"
       fill="none"
       fill-rule="evenodd"
       id="path151" />
    <path
       d="m 268.81327,351.40136 8.79197,-19.88441"
       stroke="#000000"
       stroke-width="0.962501"
       stroke-linejoin="round"
       stroke-miterlimit="10"
       fill="none"
       fill-rule="evenodd"
       id="path153" />
    <path
       d="m 268.81327,351.28759 1e-4,-21.88503"
       stroke="#000000"
       stroke-width="0.962501"
       stroke-linejoin="round"
       stroke-miterlimit="10"
       fill="none"
       fill-rule="evenodd"
       id="path155" />
    <path
       d="m 319.34868,350.98597 1.1e-4,-33.22717"
       stroke="#000000"
       stroke-width="0.962501"
       stroke-linejoin="round"
       stroke-miterlimit="10"
       fill="none"
       fill-rule="evenodd"
       id="path157" />
    <path
       d="m 319.34868,317.75959 h 11.21834"
       stroke="#000000"
       stroke-width="0.962501"
       stroke-linejoin="round"
       stroke-miterlimit="10"
       fill="none"
       fill-rule="evenodd"
       id="path159" />
    <path
       d="m 401.6341,25.92417 h 21.2434"
       stroke="#000000"
       stroke-width="0.962501"
       stroke-linejoin="round"
       stroke-miterlimit="10"
       fill="none"
       fill-rule="evenodd"
       id="path161" />
    <path
       d="m 401.6341,60.055419 h 21.2434"
       stroke="#000000"
       stroke-width="0.962501"
       stroke-linejoin="round"
       stroke-miterlimit="10"
       fill="none"
       fill-rule="evenodd"
       id="path163" />
    <path
       d="m 401.6341,93.922086 h 21.2434"
       stroke="#000000"
       stroke-width="0.962501"
       stroke-linejoin="round"
       stroke-miterlimit="10"
       fill="none"
       fill-rule="evenodd"
       id="path165" />
    <path
       d="m 401.6341,127.78875 h 21.2434"
       stroke="#000000"
       stroke-width="0.962501"
       stroke-linejoin="round"
       stroke-miterlimit="10"
       fill="none"
       fill-rule="evenodd"
       id="path167" />
    <path
       d="m 401.6341,269.07626 h 21.2434"
       stroke="#000000"
       stroke-width="0.962501"
       stroke-linejoin="round"
       stroke-miterlimit="10"
       fill="none"
       fill-rule="evenodd"
       id="path169" />
    <path
       d="m 401.6341,303.20751 h 21.2434"
       stroke="#000000"
       stroke-width="0.962501"
       stroke-linejoin="round"
       stroke-miterlimit="10"
       fill="none"
       fill-rule="evenodd"
       id="path171" />
    <path
       d="m 401.6341,235.20959 h 21.2434"
       stroke="#000000"
       stroke-width="0.962501"
       stroke-linejoin="round"
       stroke-miterlimit="10"
       fill="none"
       fill-rule="evenodd"
       id="path173" />
    <path
       d="m 401.6341,201.34293 h 21.2434"
       stroke="#000000"
       stroke-width="0.962501"
       stroke-linejoin="round"
       stroke-miterlimit="10"
       fill="none"
       fill-rule="evenodd"
       id="path175" />
    <path
       d="m 401.6341,166.94709 h 21.2434"
       stroke="#000000"
       stroke-width="0.962501"
       stroke-linejoin="round"
       stroke-miterlimit="10"
       fill="none"
       fill-rule="evenodd"
       id="path177" />
  </g>
</svg>
